<mxfile host="app.diagrams.net" modified="2021-07-22T14:09:57.255Z" agent="5.0 (Windows NT 10.0; Win64; x64) AppleWebKit/537.36 (KHTML, like Gecko) Chrome/91.0.4472.164 Safari/537.36" etag="vKaHqkVbPo2vINXidqyB" version="14.9.0" type="github">
  <diagram id="iavko9qI5NAwuMQhozL5" name="Page-1">
    <mxGraphModel dx="1165" dy="596" grid="1" gridSize="10" guides="1" tooltips="1" connect="1" arrows="1" fold="1" page="1" pageScale="1" pageWidth="827" pageHeight="1169" math="0" shadow="0">
      <root>
        <mxCell id="0" />
        <mxCell id="1" parent="0" />
        <mxCell id="n6DobrlzXXJB-d5-m3xx-8" value="" style="endArrow=none;dashed=1;html=1;dashPattern=1 3;strokeWidth=2;" edge="1" parent="1">
          <mxGeometry width="50" height="50" relative="1" as="geometry">
            <mxPoint x="40" y="220" as="sourcePoint" />
            <mxPoint x="800" y="220" as="targetPoint" />
          </mxGeometry>
        </mxCell>
        <mxCell id="n6DobrlzXXJB-d5-m3xx-9" value="&lt;font style=&quot;font-size: 16px&quot;&gt;SAP FACT &amp;amp; Dimension&lt;/font&gt;" style="text;html=1;resizable=0;autosize=1;align=center;verticalAlign=middle;points=[];fillColor=none;strokeColor=none;rounded=0;" vertex="1" parent="1">
          <mxGeometry y="530" width="190" height="20" as="geometry" />
        </mxCell>
        <mxCell id="n6DobrlzXXJB-d5-m3xx-10" value="" style="endArrow=none;dashed=1;html=1;dashPattern=1 3;strokeWidth=2;" edge="1" parent="1">
          <mxGeometry width="50" height="50" relative="1" as="geometry">
            <mxPoint x="40" y="530" as="sourcePoint" />
            <mxPoint x="800" y="530" as="targetPoint" />
          </mxGeometry>
        </mxCell>
        <mxCell id="n6DobrlzXXJB-d5-m3xx-11" value="&lt;font style=&quot;font-size: 16px&quot;&gt;SAP Composite&lt;/font&gt;" style="text;html=1;resizable=0;autosize=1;align=center;verticalAlign=middle;points=[];fillColor=none;strokeColor=none;rounded=0;" vertex="1" parent="1">
          <mxGeometry y="220" width="130" height="20" as="geometry" />
        </mxCell>
        <mxCell id="n6DobrlzXXJB-d5-m3xx-21" value="&lt;font style=&quot;font-size: 16px&quot;&gt;SAP Consumption&lt;/font&gt;" style="text;html=1;resizable=0;autosize=1;align=center;verticalAlign=middle;points=[];fillColor=none;strokeColor=none;rounded=0;" vertex="1" parent="1">
          <mxGeometry y="110" width="150" height="20" as="geometry" />
        </mxCell>
        <mxCell id="n6DobrlzXXJB-d5-m3xx-39" value="" style="endArrow=none;dashed=1;html=1;dashPattern=1 3;strokeWidth=2;" edge="1" parent="1">
          <mxGeometry width="50" height="50" relative="1" as="geometry">
            <mxPoint x="40" y="110" as="sourcePoint" />
            <mxPoint x="800" y="110" as="targetPoint" />
          </mxGeometry>
        </mxCell>
        <mxCell id="n6DobrlzXXJB-d5-m3xx-41" value="" style="shape=image;verticalLabelPosition=bottom;labelBackgroundColor=#ffffff;verticalAlign=top;aspect=fixed;imageAspect=0;image=data:image/png,iVBORw0KGgoAAAANSUhEUgAAAQUAAAEWCAYAAABv1IKkAAAgAElEQVR4Ae1d3880S1F+/6690Bu9UG40BtSYoCgsmmgOF3hBMNFENBhBNySCQhT5cRAlBCPhRcCAGDic5HjOJ5qg5iPyQ7wxkWgiGA0wpqu7Zp6urp7pfXff+bXPl7xfz/R0V1c9U/V0z+x27V3Hf0SACBABQOAOjnlIBIgAEehICnQCIkAEMgRIChkcPCECRICkQB8gAkQgQ2ARUvif//tO974vfK37hWefdD/69uerf69+70vduz/3tS605z8iQATmQWB2UggB/voP/UP32vc96d70sX/qfudTT7vTX325+PvdT325+437f+5e+/4n3S9+4O9IDPP4A0chAvO/aAwrhFe/58XuNz/2j81/YcXwR5/7Km8XESACMyAw+0rh59//pHv9nz7p3vjhL7rmffd73+u+8c1vdx958V+lTWj3y3/2pPu597zktu+enrrD3V13V/k7nJ5Kv6eng9tGr3vCyz7H7t40vD+asQ+nLo5oGnZdNyavvBbkHrqkvggrxjpabcoxtaaU/3BbanoU9XhPQNcxXcprOQ5xjByXzMY0TosubWOZ+wt26Lh7K2cnhfAO4ZlnX+he9+wL3Rs+NAR6OA9/b/34l7pvfPNbgvMHn/+K1D3z/hfkvcM54ItTQICKAxQ39L47iuPaAHnanQ7BGUz9/bEbRKS+MEbQLzqj6ddNy/P1U4tT/2FwuXB/qhOQ9uwaxu66Vlva9RAcjL4tuozjoPjedXcG92Bvra+vS729Ylf2iziNTSTad8vlIqRw/MPPd/qn4Ol5KN/80b+X6q//x3/37QKZNP+7PxazbM1hekcFB5a2jtPh+OIwlTbWmVrk1fUTb+8OZtWAuowdt4zdbIusyvxZ2upgMQjXW3QZxSGR7uF0EjK3wVnr6+nS6wP3/Vo2WDlbO1+EFH7q9z7T6Z8CpuehfOU7/lqr+3btpOCzec1hZCAhEZ3dY/8RXwmuKU5ZbZMFz0TbZOmoflPj9WjZg5axJ9o8wJagRRmIE+M04RDlChlk9yx2rmFY6jLePqni2DC9utC+Wy4XIYUfecsnOv1T8PRcS1vfSgriAM4MXnMYGQcd33E21aUvJ9tAAEy2jVJH9dNZ9u6us7Njr5N30DL2ZBuw5Qw9ikCcHKcNhyBXMbBj1DC07RSqWnu9XvRDP9FGOywXIYUffNNHO/1TTPU8lD9++qRU/+e3/rdv10QK4nj+8nbcAYLjp34tzjvZBgJpsm1EQPTDF3Ph2JKbOGV88aWBofi5ZcvYk23AFh2kQY8ioCbHacMhyO1tN0Fau8eFLsmOKcylH94Tez8Uj52Vi5DC4Vc+3Omf4qnnoXzjn8T3Bx976at9u2lSiM7bO4wKTmXNYeQyOleL8062gUCabBsVHNXP2NKJzLvurvr8kjq0jD3ZBmw5Q48iECfHacMhIwVduaRgrWFY6JLsqLVXM/N+Izhoh52Ui5DC9//an3ff96sfkT/F8Qd+/S/k/Off9dnu3//r2/L3Y2/9y77dFCnIDRxh8lEHCA6rfZEgVDlbTrXB63hs5cD5qH7Qrj9skXuNNlMyKtfzgJLobXpZOoVDkJsT/zAZ1PoWuiQQa+0V46JfI7Fp/62Ws5PCa977Yvey3/5k90Nvvu++893vZbiF83/75re6jz35evfKt3+m++Hf+rj8vewtn+he9e6/zdpmJ3Kz/McGbVd3ADsD+B+7qRwtC4fRC8VLtjZ5df1AcHZo9c4uppO2sdtt8cbw9ShltukyhUOQm5OCAC4fH5/Cd1Gc1VOpS7SjZaxcXrShGN+DZcN1s5PCez7/1e4V73iue/nbPi1/r3jbp7upv5e/47nunX/zlQrMw0xRaSDVrgPILOctw6PMfvWggr3vKRgnFAe032+ofA8gPAZod1c/HTfoqQ1TnbQvxtEOWF7RljP08ANxWpdRHBLhekEZcffupfdJSMSnZaycFJSAxicgRH+Lx7OTQtj78Esf+GL3k3/wfPfKd36h+5l3Pde9yvkL9T/9rue6n3jn891r3vukuvehdwZ8IQTH6kAxiMy300aDKs1sIKsgif6LQSDXBO/gFOPyfP3uEmmkYEJdRnUfRo1H42NX2xS2tOvhk0IYaVyXcRzgI8nCxFP8Zmuh8wQpZJjG+6gifBuS/vq4afXYwfnspBAwC8Tw3ufCHoiXqjskwzuEn/3jF7vf/+y/VAlhB/jTBCKwOgQWIYXVobBphbzZO5/xNm0elZ8dAZLC7JBzQCKwbgRICuu+P9SOCMyOAElhdsg5IBFYNwIkhXXfH2pHBGZHgKQwO+QckAisGwGSwrrvD7UjArMjQFKYHXIOSATWjcAipBC+vMQU7+t2DGp3uwjMTgpM8X67zkbLt4HA7KTAFO/bcAxqebsIzE4KTPEOm6dgU5O/ESjfjVds/tKdOw3+W8rXnJRD50J+ZdNP0S7pUdTjZqPUptQj4DHYKTIqdjX1BVmDZXqUvhIO8i+RKX3PsF21WHs5OymEjU5M8Z7conXrtO4sBGcOEraX4n068ekkKRgMMMCUlHRnLF4LxyGID4c85wIGtm0fzlVmuUO2bsuYDd4Ya6tbhBQwnbsCgnVM8a6opLKS3ci0ck/F6SszvnYQJ660yRz8DD2yfjqQpk+bCuzK9ZYAlqCHFdgwdNzy/BBSuFZK+UGXdR8tQgqYzl3hwTqmeFdUtIzL3kqsaCOnbOk30SYjgom2oMFipHC6lx/yKbBKKffuTXamJqIJP9PlpGKr9a3ZDvCs+nARUtA07qHUf1jn1U/laFQ5ckOcWa92A6UfOr5z81V2X062geCZbBuljuqnM+yWU7wn8KbsHAuolr7h0UHaGR8IcvtrwBitMoP6VrdaX9uu95uNHCxCCpjOXXHCOqZ4Ty8jjWPj72bWnpsVTylbCGmyDRCcChcSjTrW9KgFhgQSvoAMx2BnrV8YuqVv1CfoPLy8jLjFF6s2kNtligJZ8lkrS+EZs0HbrLlchBQwnbuCg3VM8a6oVEoJZD8fYdZjMuA152D5ScQgxyEFvTiiRy0waoE0iKzb1dJXSSqMr8fYD4/DmPZc9dAS5fTtE4nV+tZsV5lrLxchBaZ4L92i5mBly1SDjzy1RtdoMyWjcr0WGFN21voFE1v6KhEMq4PwgnFYNVgZ9txCaUlBfzIwjFPrO2aDlb/G89lJgSnefTeoOZjfOtSOzOB9p5RkFJ6h+0twMObEY9eiCF+PWr8pO2v9wlgtfXtSSB/jHo/wmx6OjPNkJtDSCuzclPIA+aoPZycFpngHf2j9nkKYjU1gizO7H72BfDmMQYvP7bF6SC+vBGPTmUuA4hhn6FEL7pYgtHqoRS19B1LQR6PhMSLIsTLsuY6lZbAjk5kuRGz8R52a7Spz7eXspMAU7/CNRnjBJs5pX8Dd7S/F+7id8GUhxAKf4bE+HStflgEcCDF/X2JJoEUfjxT6l746OEQ6SQHAaD1kivdWpNiOCMyPwOwrhflN3PuI6fFgZAbdOwK077oIkBSuiyelEYHNI0BS2PwtpAFE4LoIkBSuiyelEYHNI0BS2PwtpAFE4LoIkBSuiyelEYHNI0BS2PwtpAFE4LoIkBSuiyelEYHNI7AIKTDF++b9hgbsGIHZSYEp3nfsTTRtFwjMTgpM8b4Lv6ERO0ZgdlLYQor3uANu2INf3v/01WLYDDNXn0GXtC0aNlUN1+JR1Ak2YIG+tq2eP8QO7dtp1mmjU6EHfiU76eRvTBrugSvD2CNtTF3UbRyrer/Bsls6mp0UtpDiXR3Q3R2Xtt/arMBz9emdM2xjPhyy9GD9NQ1OEyAtKeEfYkc/7qhOsVUtAO3uxV5mOij7RWLGe1S2SZ0n9Kr2s0rcyPkipIDp3BVnrFs6xXtwknNThc/VR/GS8U5Pi2Sicj0EAeYo1E4N5UPsULGjOqVGoY2XL+F8Uki5EWBVUpM9pVetn9p1a+UipIDp3BVwrFs2xXvc0384M1V4dLzz0os/pE/EK8ySaWktBJDnDNCkKWahoFCPlo+nU9L82qQARvrBPYVVmaV5FKAbuLgIKWA6d8UY6xZN8Z5SeYdlqcxeMBMFXWPQlPn5svpH7CN4hXRg/RjxeRliQ5roMzourxXrsfIhdrTqFNr5gVtmRLI6Fv2c1VDRJg44iZXbzypwQ+eLkAKmc1essW7RFO8Q+HHGHV52DclASycOjhUDEGamYBzM5HaJ/JA+QeTQL6Jn5SqmfXagM34vYpDdbsc5OgX51ccHfAEZjnviS2SC1+Ga2uvJHuypY+X1U5m3WC5CCpjOXUHHukVTvJugQ6fC4MPjYAO2w2Nsh8cP7RMDHYgqCHJmTcVVypFU7Fm7B9rhjl/RqRaAFhtPr4FMAmFpqrqhZSHb08GpK/oNIm/yaBFSWHWKdxMY0eHDM3tYpg/BaJ0YieAx+8i4OGPC8eijghMMnsc/xI5zdKoFoMXT6lb0SxmV76GhbdOql+0HIm/ycHZSWH+K93zW18/ep1KFB8cagjI950+kFz+/T5Q7jDP4rASAs6QeWviz63A9Hj22TrUAPJsU0seuiEUuux2rvJ9F5PbOZyeFLaR4zwNDlg7dnXkut048S5+x2V6upSV1ODZvHuOsaT+lKB3+bDtadUpD1QLQ4mk1c/vJamFYvWVtztAr62cHvsHz2UlhCyneg5PgDBRfOOYBZZ14jj7ivNXVQJwZ43N3XBUEIhv+cv1rvn6uHe06xRGlvSGscCWSFuobj7Wp3y/ZnDDBNufoJW0zrPKXnDWs9lo/OykEIJnifa/uRLv2gMAipLAH4LZrg7eKyGfl7dpGza+BAEnhGihSBhHYEQIkhR3dTJpCBK6BAEnhGihSBhHYEQIkhR3dTJpCBK6BAEnhGihSBhHYEQIkhR3dTJpCBK6BAEnhGihSBhHYEQKLkAJTvO/Ig2jK7hCYnRSY4n13PkSDdobA7KTAFO878yCaszsEZieF7aR4x805w0489YBiE43u3En5GIaNSEFO3r/oGzbjQP+WMbSNLUvZDxs7yC1k1TZjmdwG/uamXI8gv2wXN20V4+JmJQcniwHPL0NgdlLYSop33CUZnVedGncjDuBj+vTg1PX+Kdgy5477EYY+02MMI+dHl48d5KX9EYYEYrA6uy09Usjsy3XUHBV3d0bW/bGz3WRMW2nF8fyqCCxCCpjOXa3BulWkeD89VdXCnNadDinQx/bppx42MLP+OgMbRxfi0SBsGAOUyw4vHlv1U10y6R6hSYcOA1xsMfahmMxWvOAckxQcUB65ahFSwHTuah/WrSPFe4UU0iw64vNZvsZoH5CKBp0RkAdSnKlNE4VqtHwwKfSDTYztEdZZK4UJ+cY6koIBZIbTRUgB07mrjVi3lhTvqpvO9Bo3EsAmE9PQ1qZzC1ciKWj/wtGdQJsaA8fD4xopNI9tAhxlx2MnqE2fnOCMBNPWXC1OC6yKFqy4NgKLkAKmc1eDsG49Kd6jduKY9vlXAjm+jBzeBQztsc72j+fwIrOyVI8JYP0xFDdbBtkXjT0ZtI2kgC8Hw7HaOCk/t0iwUkbLL/HskRBYhBQwnbvahXVrSPGefXqgDq3KYilOnn96MBX0uaM7QYbyw7Ezhm2i5xePPRm0jr6mD1cKeje2WS5CCptK8d5yX83yPwQmztZWRE4KGvTmTbztZMawl/X84rGnxvGuB1IA4hwlBa+/Ku+UBVZOG1ZdF4HZSWF7Kd5bAM9nz7MDEz/dqA6Xj1Frdo2xxwLRuyYk0EoKyVbvexmeTd54XjvWXQ+B2UlhkyneEe8w05lnXAkKeOdwfmDqaiF9F6JhDFQJjy8eW4RFArKBKwEKdsZx85eooW50pYDygUhiNb+nEDFd9v/ZSWGbKd7xJqWAyV6k5Uv/BwWmzqASKNNjoEZ4fPnYKi0Ge/ZuJSPDQUf7qBRJEl6kJqyy7mov4mhJovLxrWrI8nEQmJ0UghlM8f44N5NSicA1EFiEFK6h+O3KGGbobBZ3fnD1djGi5ZcgQFK4BD32JQI7RICksMObSpOIwCUIkBQuQY99icAOESAp7PCm0iQicAkCJIVL0GNfIrBDBEgKO7ypNIkIXIIASeES9NiXCOwQgUVIgSned+hJNGk3CMxOCkzxvhvfoSE7RWB2UmCK9516Es3aDQKzkwJTvKfkp7gRKBznu4XEweKuRNhY5LRBT5T2Thupn9hs5G1ishudwlhjOnkyML19Tb8gt6mvSZWPtvcZqMH+S2RK3ySrsBnvHYyX67Pds9lJgSneU2BlzhT3MwxBmHYoZm26DtPIuy5nMiDFNrrbUVPUa898yzMGgbSQZCh3kHJ9WqdChg6VyklSMPZidw3MASO8GknlcDhk5NqkTwhwhzBrfcdsyDXa7tkipIDp3BU6rGOK91N3GJ0VFTVTelmNUt3hgAEuU3M2hhcEWQB4sovh86A0l+MqoxL43vjYP+giQV/kcwitImE9hBQOp1N3dJLw1vTJMEEFd3S8CClgOnfFEuuY4j2uHCrxo5A5ZQoO+M0Kde7CmRtSqEkg9rKmddKxHMWkqtABGrb0PZzu5fc3ClySLfennJTaZD5NOTDznBi1vmM2gDmbPlyEFDCdu6KHdUzxPjxj15bLipstrTP3gW1IwDq37ReTxTqB4syqqkMhQy+k0o6Jl1v6BiyknVnuq41Whj3H8cKx9tNjfK9T6ztmg5W/1fNFSAHTuStwWMcU7wmV9Fwf8iY0k0P2XiHM7vouwR7njxMSBPgCrZafYUQnTwY+r48FVEvfiAHaoY9BkbxsILfLVDmKVT2l3JgN6stbLxchBUznrgBiHVO8KyqplED3P6EwLcP8J8/IssTOVgfwYlEC21kFZOty/8ViP56jkw3Kvm1vRt2Glr5KjDjDYz88DkPac08fldm3T6uQWl+SgkXxCufh0wemeDfBkc3uFZAbXvRpTw0a69h6LqVZgus1lSHl1JjmuisDBI4FVEvfPoB7UgvEVZ/dz5IpekZCDePU+o7ZAKZu+nD2lQJTvHsfSZYvCEuvghVAeTGrEYc+HLuj/cQhkc/R+V0KNwj64MvEw0mukysDWx8NGcK1lr49KaRPG47H8d+bOE9mUiZhdDIvLVVVkoIiccWSKd49UpC3Xl3/RZ8QjNlSXl885kv+6m2RYA5fehpm0dg2BnFZ7y21zeNDg04tQYgv81D/lr4DKShe+bsWK8Oe43jhWFdUXr3kvzT3QPvUbLBytno++0qBKd4rpKApz2VZr8EL32Z0P5+vuV0KaPOI0Du1I0sCyLxozJ1/WidXBrywlFnWjoHP8Paa6ZuRgrw7yUnSkkCLPrnMhKeSKkmh5mDXr2eK9+tjSolE4FoIzL5SuJbityvHm7HjisKZ2G4XJlr+YARICg+Gjh2JwD4RICns877SKiLwYARICg+Gjh2JwD4RICns877SKiLwYARICg+Gjh2JwD4RICns877SKiLwYARICg+Gjh2JwD4RWIQUmOJ9n85Eq/aBwOykwBTv+3AcWrFfBGYnBaZ4368z0bJ9IDA7KTDFe9oQZTf/ON9RLjYQOW3QDWvbeqW+tjkqyfQ2D3mbhcZ08mTgjsyafsGGpr7Frs/Mekkug5u4LpEpfRM2hc147/SeaNIZvab1qOJGjmcnBaZ493ZJxv0MQxCabcvJmZjiPd8qjTEWgvgh2Zxli7RDmEgKOI5PbE+70/HUPe0b2vvZX9jEwSKkgOncFSWsY4p3pnhXv9AyBOOWUrwLqThko/asuVyEFDCdu4KDdUzxHmea81egZQYnnfGKGS4sd8FptZ3ej1BKIDLFO0Iy+tsVpmGGb3Zt5SeLkAKmc1d8sI4p3odn7OGRQpEaL21w94FtSMCShO3HFO/5b0go6hY3rbdlazvbbw3ni5ACpnNXELCOKd4TKpoBiCneYdUSVlGQZk4wWleKdyFYJ7uV+vray0VIAdO5K0BYxxTvikoq9c120/MEPHpkq4P4aCEiIJB0pGKloOnhamM6OpUyVHosx2bPlr66agpy9Bj74XEY0Z7n2tjHo9Q+PVLV+o7ZEOTL9Q0TQrBhEVJgineT1VgCLM83aB24k0CGGbJoMFRo0FjH1nMp4X1C6KnXBilSmf3eZHYtdsquuzKg01hAtfRVIohYBLwC0Q2YWBn2HFSRQ8VpqB8+Naj1rdvgf2I0yN7O0eykwBTv3keS5QvC0oVgBVBezGrEoZni3Sc6QKokBc0SfezOTfFeJwsYcCOHs5MCU7x7pKDOmGa9sCowy3YJ9NZlqawqmOK9NttrbLqk0D8CmNVc6uQG/xmrOB17zeXspMAU7xVS0Gd4WdbHVYF8sUa/IddKCOJtaSlrHhHCJXFqR1YkHUwpb4NiWidXhknTntt0139s19K3f3wQG4M++SOXJYHzZaZQVVI1xNzjZ+u1fX+vBhxt0zTCqovZSSGgwRTvq/YJKnfjCCxCCjeO+YXmezM2U7xfCCq7AwIkBQCDh0SACCzwkSRBJwJEYN0IcKWw7vtD7YjA7AiQFGaHnAMSgXUjQFJY9/2hdkRgdgRICrNDzgGJwLoRICms+/5QOyIwOwKLkAJTvM9+nzkgEWhGYHZSYIr35nvDhkRgEQRmJwWmeF/kPnNQItCMwOykwBTvuilp2DQjm4ScnTNx8xK0c9rgnXZ38OkmqNrmqCTT2zyUb0CKI43p5Mm41RTvHnZ4r9Z8PDspMMW7t0sy7mcYHMlP2MEU70PGJRtUgZCWS/Ee7inu2Iz3c4LDrQmrOV+EFDCduyKBdUzxzhTv6hdahhXKllK811Ztas+ay0VIAdO5KzhYxxTvD51pygxOsqQ/3pepybP8jX46NglEpnhXF5WyNdhz7DIRqz9ZhBQwnbsihHVM8Z6C9JwszglIJQHFtXdOQwLWuW0/pni/IMV7S85NvUErLBchBUznrphgHVO8J1Qgo8/wvkERq5SZQ4YVhyY2tcd3HT7zCimYzEF4vR9tRCdPBv7gjCWiXqYmjjXj274RA7RDk8vG53lLbC369LiKXYqVv3IK+tZtiKu72s/Qoa1rP16EFDCduwKEdUzxrqikUgLdpkczbfrT6JwS0NnqID5aSL0EAL4Y84LAf9k5DHPs7KcmNij7tumgHlDe+Hnv0FcDGI9xTDwOve15LjEGuMrs26dPaWp9x2zo5SfiRNn9tQ0cLEIKTPFuAjyb3SteY2aySiup1qCxjq3nUpqPKPVaJndqTHPdlQECxwKqpW8fZDJuILVAXPXZ/SyZETn55eowTq3vmA1gamCc7s7kkMyur/hkdlJgindvCVq+ICx9BlYA5cWsRhyaKd6rga1gKXnquZQpmM9N8Z7JCCckhQKSagVTvHukoE7EFO81xykCWIJueKQI/ezsbs+t7EJmaiCrgfB+w3mpIteK+vvu1H9KE4REAu9XNnbglZ/PvlJgivcKKTDFe3xHYV42avyVARwCb/y9iJCCkRfeg9RlpmiVx5NzSCG9f4GxtkoIAYHZSSEMyhTvK58qqN5NI7AIKdw04hcbH5em8uYfZiacAS8eggJuGgGSwk3ffhpPBEoESAolJqwhAjeNAEnhpm8/jScCJQIkhRIT1hCBm0aApHDTt5/GE4ESAZJCiQlriMBNI0BSuOnbT+OJQInAIqTAFO/ljWANEVgLArOTAlO8r+XWUw8i4CMwOykwxbt/I1hLBNaCwOykwBTvaUOU+YpydUcettOdPBXv8XfwpfFM/oQgAtt7m4e8TT3Sp6KTJ+NmUrzjPZEdnEOeB7y0hePZSYEp3vNgjE5it9r6WY+Y4j3fKo0BFghpyRTvgy66Y5KkMGAycRRIAdO5a3OsY4p3pnhXv9BStk4fDpVsRilJTbgOqylZucC5ytJSZJ5OfbYlrQ9lrS+urrC9Hsd+R8iNqVe2Uy6yUsB07goV1jHFe1w5jPizwmbKFByQ8EOdu3DmsMSFRwpthwJj0DxNVdM6eTKsPAxavNbS93C6706HIR9C3z/Zcn96CCk8DUu3gmxq+hQ49kpgEtmAFVcKCM3ocVgpYDp3bYx1TPGeZiqmeFf3kPcffe5EILPQQMnLBrI974WlA+2nMpCwan3rpBAJORI5ScFiPXoeSAHTuWtjrGOK94SKZgA6hxyyWQ+d0x7nM64EAb5AhAxFeo+kHNHJk4GrkXpADSSY5YmA4B8CGO3A2blc8rfo079MFbuG2f1cUshtMzpmAK7/ZJHHB0znrhBhHVO8KyqplED304OZln1+QJmx0rI6PgDATCYBMJ7KrNP0cLVnGEenWiCpjnngaG0sW/pqAA8EkROBlWHP8xGHFYbWS/tERLW+rg0ZzkEaSUExbSrDSoEp3k2AS4DlQVqAaWay4jpUaNBYx9ZzdH7tptf0XMqpMc11VwYIdAMqXW/pq6TQ9aQWiK4+u58lU/QIwRw/4aj1LW2IZJutcHDFVSNVwGVth7OvFJji3ftIMjpW7/Sul0SHbfExcWimeK9+gqDwKnnquZSJoC9L8c6VQobp1AlTvHukIG/Luv6LPmEmNNEvgW6yF1exlpn0bpDXN4zE0o/T1+fL8FidZkDVo0Gn2uyqw5SzrF7xxh+uhaMigNPjCxKpHd+e5xIdmamB6Blme7UdOo7ZMDQjKQxYNBwxxXuFFPQZXp5pNXhDYOvfxONFhn0KaHhRp5ejw5eyIunoWKnMgmJaJ1cGvLDsg6236a7/WLSlLxJAfG7P7bAkcL7MhJKSamZ/vEZSUE+6cskU71cGlOKIwBURmP2dwhV1v1FR3owdZ3ZnYrtRjGj2JQiQFC5Bj32JwA4RICns8KbSJCJwCQIkhUvQY18isEMESAo7vKk0iQhcggBJ4RL02JcI7BABksIObypNIgKXIEBSuAQ99iUCO0RgEVJgivcdehJN2g0Cs5MCU7zvxndoyE4RmJ0UmOJ9p55Es3aDwOykwBTvaUMUbgoa25GH7Sa+xzEcM5cAAA3uSURBVFzbrCP1tc1RSaa3eSjfgBR9vtjUBDp5MnBHZk2/ILmp72jew/T173P1qcgUfZKswmbvnqRdm8MGNn+X5RaYY3ZSCElWnnn2he51z77QveFDL/UYhfPw99aPf6n7xje/JfUffP4rUvfM+1/oQr9z/tlAwJs8yNF9BPluu9AXAyI6rCbzMFuKkzBMvz7e39slGfUYxpweY7ABjtxkLUlW4fyxXmOowCftFNTrtUxMaHchA1QLh3JPBoHZ1aa+I2npQv9FU7wH7Cu2ZYZu4GQRUsB07ooR1jHFO1O8q19oKUS74hTvU6SmdmyhXIQUMJ27goR1TPEeVw7nTzxx9h9WHEPykmKWDjMbPFJ4Tp2veKZ18mTo/Q1loQNcbOm75hTvU/qDqas/XIQUMJ27IoR1TPE+PGNjgCtWY6V1zj6wDQnYALX9qr+FMLGEH1tC2zHRjmJ8vAiZl6QdkFlopjZaGfbciOz7qQzUvda3ZoO099412EE3cL4IKWA6d8UI65jiPaGiGYBGAlHx68vsvUKY3fVdiD1minclE8FOsFashhVWj2s6qJFC3i6uqpBk8uvrPluEFDCdu8KDdUzxrqikUgK99W02LPOz1QG8WJQAyF+uljNjekFZe4ZxdCpl5HaMBVRLX101YTBjPzwOI9vzXJthhaH10j6tQmp9x2xQOVJm5JxdWf3JIqTAFO8mwFscyMxkY56lQWMdW8/R+VWOXtNzKafGNNddGSBwLKBa+ioprCvFOxiIhw7x4uU1H89OCkzx7r1wK18Qlk4DK4DyYlYTg/7YHe3vLibyOZqPXENnNygnHTvXyZUBml2NFFKS2+Nx/GVpiz490aieCaPLUrzLi47i9yl1iLWXs5MCU7x7pKBOlJ5pQzCaZbs4OFO8D/Ekwet8nwRwexAppBeX8iUkkKUD+8T2tDsdT53+FG9cyeS6af8tlLOTAlO8V0iBKd4hnf2Qal7jUh+JhqAKq5Tx9yKRSAdZ+m3DuswkXVZI5hEvXaqSwiEfR8cY9N3O0eykEKBhivftOAg1vT0EFiGF24P5mhbH53id9bDc8ux0TYQo6zIESAqX4cfeRGB3CJAUdndLaRARuAwBksJl+LE3EdgdAiSF3d1SGkQELkOApHAZfuxNBHaHAElhd7eUBhGByxAgKVyGH3sTgd0hsAgpMMX77vyIBu0IgdlJgSned+Q9NGWXCMxOCkzxvks/olE7QmB2UmCK97QhClN3hWPnO8qy+QbbOW3QF/3NOmk8k8Is9MP23uahYlux9qno5Mm4mRTvciNSYhrFx8Ec79daj2cnBaZ4z4MxOkbczzAEoZ/1CNOpuw7lJmtRRx1SjcW+sV55pthmnHYK6nWmeE936ugTuOIz3EP3Dm2ichFSwHTuihLWMcU7U7yrX2gZVjXyuw5mu3S8HgnuIb/7cDiduqOTA7MgyaQIrq5Ut1DW2mObrRwvQgqYzl2BwjqmeM8zGilG02UKjlOf7qN31sKZw6oClreeU0sg9rKmdfJkoM6FDnCxpe96U7znqy4wa5OHi5ACpnNX1LCOKd7TzOPMYIpXrbTB1Qe2IQEboLYfU7wf6u95hmeqeBvkUevQne7DCk+TrdjHtdodW1/9IqSA6dwVEqxjiveEimYAOoccsvcKYXZX57THTPHeE2aAWwM7LbIKkky3xJKpVOt9sisv91EnCVpxsQgpYDp3xQbrmOJdUUmlBHrtBZdp28EyP1sdwBJXnHg8lZm+OPM+FZERHZ1qgaQaugGVLrb01Zd4GMzYD4+DWHuuemiJcvr2KbBrfV0bDKFE+eWjnI679nIRUmCKdxPg2execRnX8fy26uzWsfVcSpjVghS9lkmcGtNcd2WAQDeg0vWWvkoKq0vxbnCIJpEU4NaPHzLFu/eRZIsDwQpgHOIY4AemeD+LaBTTRNDnpXiHVZjK0TT0933FZg5mXykwxbtHCkzxfnYAp8eXfvXgrHbOlpnCVlY04YWhfaGoX95y6mUseIcg52Y1thVWmJ0UmOK9QgpM8b7hFO8x3CMx6KcP+TubrRBC0HN2UgiDMsX7llyEut4aAouQwq2BfF1747sFTO2ux86q9rpDU9pNIEBSuInbTCOJQDsCJIV2rNiSCNwEAiSFm7jNNJIItCNAUmjHii2JwE0gQFK4idtMI4lAOwIkhXas2JII3AQCJIWbuM00kgi0I7AIKTDFe/sNYksiMDcCs5MCU7zPfYs5HhE4D4HZSYEp3s+7QWxNBOZGYHZSYIr3tCGqT9uVNtA431Hud+tpW6cNOkwtX4HUOzv2sH2+mSfqhDsQdZwxnURGRcfQD+Xh2EG2N36RHl5x0LIyVp8gxrE5jFXYEORVZJV6DRudWu21tiqW0r+io7ZZopydFJji3dslGfczDEET9+dbR91yivcmUqgEZh/I2XWLGYRPSHpyOHSHPhUdXFNSmJSV7gFshxYp98dOu7aSgk31FrVpz4+Ra//4Z4uQAqZzVxOxjine95fi/fqkkFYXzkyrY9VmaK/eztr2XP0Uy2ZScIioRT6ONefxIqSA6dzVWKxjiveHziJlBid13CIQQpISCChtp/cjlBpcsW5aJ0+Gystllaulsb6qi105+X2CnilZraRJG5b7qMu4rGlbgyx//DiKtXdIISc9u9MhT5yruq2hXIQUMJ27goB1TPE+PGMPjxSK1HhpHbV3TkMCoR4Dw/a7dor3Xo+k/uT4xkzb3l+SC5MB2Xlp0kpCKmSllGxTmdQKzEBna6++55D7ae4FdFvF4SKkgOncFQWsY4r3hIrMdPWXfopdVmYODbOmZHnGdO/5TCUOri/wUqnPzpn8EZ08GZrrIZRIcDbI3b6wkpH2qB9cQ/1sMHqBOykrwxCl58euzqAj2is9Exmcjjn2udTlzxYhBUznrhBgHVO8KyqpFCfNZ3bTAk5h6ZucMP6UAcyazrK6DJ70os1lhjQjhwCA66WMQS0brBKYjX2DlLw92DgMEZZX5ctFp25S1jmkADagKtbeeC1hWiE07L/k8SKkwBTveTB5S/XCKRznLtqkCnVIG6R6LqVxTL2WyZwa01x3ZRidVH4emOPP56GPbe9hJuPDTN26SilkGbtUZ1ueY6/2HeujbZYuZycFpnh3HDwlbS2Wm5l3VGbHrE08EcdbWYp3JSpV1wb5VLDY9tkzugiNs7CHYcTj1OkvbLbKwlWQ6o3lmM7WXu031kfbLF3OTgpM8e6Rgi7H4a25WZaKM9nPzGveIzNdeBeh7xC0YSSWst6bqc3jQ5A5odOYw9sgsYE51jdob9uLRbLMB8wKe5PdCQ9Vf1JWFC6/Ro2f0OiYKmdMZ2tv0mT0Ewtts3Q5OykwxXvFwfeS4l0jxni2DRIbmJH00rc74RFAxdn2UfzwjB5e3hUB3OuQE9yULF1R6GoEH0NwDJJCD/DlB0zxfjmGlEAEHguB2VcKj2XI7cjVR4D6rHo7WNDSx0CApPAYqFImEdgwAiSFDd88qk4EHgMBksJjoEqZRGDDCJAUNnzzqDoReAwESAqPgSplEoENI0BS2PDNo+pE4DEQICk8BqqUSQQ2jMAipMAU7xv2GKq+ewRmJwWmeN+9T9HAjSMwOykwxfvGPYbq7x6B2UmBKd7ThijY9CMbbnTnD7icbNzBdk4baO7vJNQdhiZ/QuiHG4O8DUneNuQxnc7ZIIRjB1288XE3ZzFuwKWKx7BRatjcNCB1jqxSryHnY6u91lbVRPrrfdFEOnq/q7Zp78crZycFpnjPgzHe2rifYQjCfFef3n6meMesiRYzRUkYZmMp3p92p+OQ76GT1Hl5+jqw7tEPFyEFTOeuFmIdU7w7acUUqLHSyxiU6g42e7Bp68162Qxn2ntqeDK0XZA1kF5JjGN9g4xMlyQ0m2l1oNQ2jOX1aZVVkw3DjOZGaLJXVwkoNB23jO90u0rVIqSA6dzVCqxjivc4C56/gowrDAw+DbYiQLL8jV6SlRiIg6xpnXQsvadYNgXJiMGF/vrIUfQJemLilWG5r/pMy5q2Ncg6x96zU7yb+6O6z1EuQgqYzl2NxDqmeB+esYegVKTGS+uofTAaJ7OBYfsVeQs1CExWZtSmkAEXez1S3eT40Dcc2vZuktbYEJKtRJK0vDEpS57vSzIxKp1HCphyz9wLK9e112v0SHWLkAKmc1e7sI4p3hMqsmRniveAhgSyvoQLZWXpHdohkXpENSnrHFJAncwx6iF3NJHBVIp30bk19Z4G0BXLRUgB07mrLVjHFO+KSirFScfetmN7WPpmMxLMmkI2+UxYBo//srMfydGplNG3lqDGILGz9VjfICVvDzYOQ4Tl1eZTvEfCyu8NmjjH8SKkwBTvJsAlwCYcwXP4iocExwoBaANNz6U0M61ey0ROjWmuuzKSQNVJ5edBPv58HvrY9mOPN1lOxTR7jxFSIcvYpTrb8hx7tW+9zwQJq4AZytlJgSneHQfH583qTa/Mjk57cTymeO+RiXgMH/kVBFPg3xag9QCP9xiJSJWp9Sl10h7zl7OTAlO8e6QgU+GQkj3MVObtmDhT63OmzHRM8d6HU8JDIXUDUFZrmBI/knDx7uIhP0XfK1JZETWuTEDMox7OTgpM8V4hBaZ477xl/2ggA2abTvHek/g6kvHOTgqB4pji/VGJnsKJwEUILEIKF2l8853TstZ8/BVmWZ1Vbx4iAnARAiSFi+BjZyKwPwRICvu7p7SICFyEAEnhIvjYmQjsDwGSwv7uKS0iAhch8P8PGkIhsMb3fAAAAABJRU5ErkJggg==;" vertex="1" parent="1">
          <mxGeometry x="130" y="240" width="261" height="278" as="geometry" />
        </mxCell>
        <mxCell id="n6DobrlzXXJB-d5-m3xx-42" value="" style="shape=image;verticalLabelPosition=bottom;labelBackgroundColor=#ffffff;verticalAlign=top;aspect=fixed;imageAspect=0;image=data:image/png,iVBORw0KGgoAAAANSUhEUgAAAPwAAAB0CAYAAAChSF/SAAAWoElEQVR4Ae1d2at0RxG/f9c86Is+aF4UcUOI+zWCEh/igygouKAYdRA0muCSmMQNUQy5MSpuJF8CMflcwIUrGqO+CAYFoygxLVXddbqquvosfc7MnTNTHwznnO7q6qpf16+759zp+s6C/3MEHIGTQeDsZDx1Rx0BRyDMIvy///ts+NIjfwxvved6eOmnH61+3nTXE+ELD/0xgLz/cwQcgatDoJnwQN5bvv7L8JYvXQ8fuP834ePfuwzb7/+u+Hzie78LH7z4bXjL3dfD2+79mZP+6sbae3YE2ld4WNnfdOfj4UP3/3r0B1b6zz/0pMPuCDgCV4RA8wp/093Xwy1fvR7e/Y2fm6b/77nnwp+f/lf45uN/QhmQe+fXroc33vmEKR8ut2FzdhbOKp/N9hLbXZyXMucXUuXldqP0nAclEgo9m22IPUhd8LSUvlLPWSC/yl7tklJHm2/R/01IsBqdXYRzGAsGbnObpKPAnI+1kJlmV4kJxEjW0Wc3thV9l/GFMclwMMBaTVEz4eE7+833PBbecc9j4V1fzySGZ/h87IFfhT8//QwC8ZVH/4BlN9/9GH7Pn4IODhYjIzzXSXIZthsYMEWCi/OQxysFMtMJ9sSgUO3Csvp4cCEGaZLLtvUhs6wt0d86lmDrZrMxCN/QxnAQ+6+Vn03ro8BVwUi+nqkxB7Fa25p9SvXqHmcR/vxzDwf6kOf0DNcP3/cLLH7qb//s5GCiGP3v4lzM1NAOBqJGeBw8Y1B5fziQFRk9yDvRp4Jc98lt5fdL24I4AqH15IidxsnFIjyWTWzDdwnkU83vFrtqpOV9bbZb3LHo2Km1rdlHOtd6nUX413zqh4E+BAA9w/XG235ExZ3ceMLHlVgPEAaEuQ+N8opPXf/xZkAGV1zaCg7IosIBGaHPXk3q/nDTB/ppsCX2e4E7ogIzmGg323ABX41YZWsbroO8Al218s12ml010vK+MI5wAZG7uFrbmn2kc63XWYR/ya0PBvoQAPRMV10+lvAIuLESx6Azvm0bg0l9d9dBGUasQVncblRWSOqR6bO2j2P6AFVj5AZlpC2EIwa8wlnUFYS/jNvgCW1qxK6VAzmn2FUjbTcKbFeIccV8qrXVcqRr7ddZhH/hB+4L9CEg6Bmur9x+F4v//sx/OrlRhMfgpZWWNMcrDgR/2UPby8GAH0McRoql9RHhhe1n7N2C9FM87cAWInUI4DPDGnclcRXUZGhtUyN2rTzu6sbbhXYqXPn39Ww3DkLYMH+1j4Q7xhmbGKh87ddZhN+85xuBPgQEPcP13V+O39fvf+LJTm6Y8JF0eitP+sXgUSFclybF0vqI8CKI0os4UcadSvc7sIXjyO85Afh9hDi/P5nSpkbsWjmN/dg+tJ0aQa4H6lA+7VBqbaGNZZ/WvbbnWYR//vu+FZ733m/ihxx/wfu/jc833fHj8Nd//As/L/vYdzq5IcIj0Gq7SLrhqgevq1Pfl7tyfjMkw+v5PdfB74dkVL0ZXEqGq+/ul5BROgSOWAerOkxAebXX9ra2sYiD42xMdC19aDs73NKN0IlleVGpta3Zp3Wv7bmZ8G++6/Fww0e/G1704Yvw7P+eE37D81+efibcf/2pcOOnfxhe/JEH8HPDrQ+G13/hp0JWPOBKlgNO1KWHcvBIatxq2TeQsm5pffZLu/j7A/kiiTzK1+VtkThG/efn8WUdvSHRZGht00z49GfRIbu0nRm3eCftTrVp17RVLyaprYwFKl3/tZnwdz78ZHjFbdfCyz/5A/y84pM/CEOfl992Ldz+kz9UUMuzbkUAi83B6xpEHfz7W2rEvisnGbW64ADT+4Ad6SsDcxyRoznL+lbgiATIW3boU9vb2qad8PRVrd8ubWc3fOmmsJuV135Ug/GgYkTrXeNzM+Hht/Rvv/fn4dWffTTcePsj4XV3XAuvNz5Q/to7roVX3f5oePNd16u/pUeA9YsX9mx9r7MBTyRibYsJoPtBDftVVXVwl9OHgcntgvtqv5Z3y9lSkgAmFLnT0ERqbWP5WCNUSx8mrmf5hWipM2GLX2XsMajZZ43KmsqaCQ9OAunvuga/qX+ielIOvrO/4YuPh8/8+PdVsq8JMLfVEVgzArMIv2bHD8/2tGXXOwC2Uh2ezW7R2hBwwq9txNxeR2AGAk74GeB5U0dgbQg44dc2Ym6vIzADASf8DPC8qSOwNgSc8GsbMbfXEZiBgBN+Bnje1BFYGwJO+LWNmNvrCMxAYBbh4Yc3nqZ6Bvre1BHYMwLNhPc01XseKe/OEVgAgWbCe5rqBdB3FY7AnhFoJvwppKnGAxTip67l0d1Chh2GsQ510CGg8eOcDsz05AgAXWVf8SBMYR/3B22N+pnZ2TQ4QWf222/T0MGTmq2545j3QKQsN+0w5JIjw37z3k7nvpnwcCjm2NNUQ9BwgsZAJdKnoFdMudjm/PYoz+vT6SxeNBhq0GazEWmZZJtkhzrpBhmAdD82ERsIP2CT3Q9YPcZW+xhwJDA/zTeMP+FUt4ckTuc6i/A8JTVBxsvWnqYaAoUTngIWy5C8RH7yXl4LwqeMPdZxUdkyP5ENtaDFPiqrX9YS72wd0wk/ZJPdj0wtpW2jZ2xb8UfoHYG/0KlnP6o8sesswvOU1IQbL1t3mmornVYkR5wE4krUF0c1wstJhJCzrtBHmlQwwPkKB/LDNnCtgjBdxVTCD9mUttkFMGNsHZARJB+Q7fyr2cMETuh2FuEpFTVc6R8vs8qHctqRntpMD+UmYVLKIv1fSpE+vA7KyCAq+5LkQEIP/C8pYjUf7F9YC5HKvkPLvsf5I/UtQvghm2q7mDG+D8rI8RnCn7y3/aba07rOIjxPSU2w8bJVp6lOgcsnFwwc/V0ZV52YOYfLAh4UkPzlU7HwEXDGVU84xY5hkCBSqR34xkRCzQS5Y+GgTXskPFrUg392w85qQ/WndJ1FeJ6SmkDjZatOU02By99qV75bou9IPhlYBUHppdUY1ovta0JXl+2b8Lp/MMsoMyeWMbYOysgVnmKuhj/Vm/ZQ5YldZxH+qNNUGyv8YGyo4C8JbxPE0mvtDmin0O0kVH+WHl5mB35c4TudsgH7SmHvWAqbaKLUk9oYW4dkGuttv7mjp3PfTPjjT1NtvbQbCgy5AtUJr1++ab11EqLObqcR5cR7Aq2KPdcC37SzIO5Ym2ovycbZWrMR3Oiri25K/Mn14XYkefzXZsKfQppqCBRz5YO4gNVGrWJxVc5kLok0LuitbXIXirjK5Yys9Ka++IHM6L/D066D60R2yf+5t291VTbVCRYJ2W9rklHYok7+/mQE/oRZ3R6SOJ1rM+FPIU11L+HTn8RoSxuvmewQQnECYKmw4X2ACmQr1DBAu1VcS1iTRiobeN/QG/iJtNkf+RuDKTahLLcF7jt/xthqyBS4pYlB9CPxJ+R6/SahE7k2Ex7w8TTVJxIl7ubRIDCL8EeDwpU4Yq1QcTdQLGZXYp93eowIOOGPcVTdJ0eggoATvgKMFzsCx4iAE/4YR9V9cgQqCDjhK8B4sSNwjAg44Y9xVN0nR6CCgBO+AowXOwLHiIAT/hhH1X1yBCoIzCK8p6muoOrFjsCBItBMeE9TfaAj6mY5Aj0INBPe01T3oOpVjsCBItBMeE9THUe0OCjCfhdrHZ6pnr5TAVLopdx2Sa6srx/MKWS7gyxFp+GMnUiz7D9TdoCGUi4eYin65QddEk4owzCLbeTBHbIS+ylk5eEkVo3NChtqvlMnR35tJrynqbZOrYWwVJpqCFQ+OURSZSJootAxWd6GyvJJtRjNkQTGyTKVcUYTrOQCnWpTuiYczdV+RNv46brcq7YHZKW/WXay77zpEd/PIjxPSU0Y8TJPU70pjsPqACfc9LUM5kguCnBLDxKCrWAow555H1Z7TJqpV3i9ZDIluj9WVdya/RlJLUBus92GcyM56BTCT/a9sPg4C2YRnqekJnh4maeptglPpCXMrGsM/EtWNZLwHUHjabzukWnCWyuhxaQVfkC/6m8a4S9jxl42+YC68YQfsM3yXdl7rI+zCM9TUhNAvMzTVCvCK0IRZta1RngicEEgHcSDfRmkUG00wYSdSlbUGQ+FvUlGl3O/dZ22h8uKLgdtM3wXCo73YRbheUpqgoiXeZrqTcgZZKadddfBjMHPVrz4zF5Y6a17S9CrNkgw/qKNZ65RsjT+tSvaS7MVE9Ll8NztgNQkZhFe4pveJQza5oRnQzDuFl7a8ZTU1IqXeZpqtcJPSFM9RGhJFCOAW4JetdEEozHGq5IVdcaDtDcL6HJ47ghP2/g0mWl7tGynddA2A6+u8XHfzFrhPU21Co6BFQmllYzS0D1WgzlJaKLoF269iTBBh2UHEIXtFDTBOuNq7YWAfCjsTdW6vPQ7khMmAW1PKZuUWr5xc4bqueyR3TcT3tNUW5EgVw4doNgCg039GctQVQ3mJKuJIv6jy6pM7qhsn16KjSX8hN0K9Gr1Z5WbfqcVe7uVOyZTttH3jMxx3zUT3tNU7zBNdSII39rqMDQJhMTIf6vv/hatvjtjW/Y+IOqOfwXgouaEJQyJExzfFWD1zL/DW35Hm+WPi/oIP8134dRRPzQT3tNUp2AXL7Xkyo2EEfUyYPsiqz+Yaytm+iEMW6Vp5RcvtzirWbptTTTT/jOVv55Weu6n6D96iYQV/drlVb9xZyTxq8p2wCY8uG2GDZ34Cdw0Ex6w8TTVJxAh7uJRITCL8EeFxN6dsXYI0/50t3eTvcPVI+CEX/0QugOOwHgEnPDjsXJJR2D1CDjhVz+E7oAjMB4BJ/x4rFzSEVg9Ak741Q+hO+AIjEfACT8eK5d0BFaPgBN+9UPoDjgC4xGYRXhPUz0eaJd0BA4BgWbCe5rqQxg+t8ERmIZAM+E9TfU0oF3aETgEBJoJ72mq4/DhoZDK4Qzr8Ik+oNIXBIO69UEQPC2XE0gU7Y0U07X+i7asL6xjz1mHdXgn1/rd1SPQTHhPU52CWwX+Mmmql9ENxOQTTJyA+PFZKwCH+64SHk60bTZhM2FisSzwst0hMIvwPCU1mcjLPE21TNgAGFXJQgDCdURGFiRvN9nEgzic3NSXLItklmW843F913ygCaZWr3ryxytAYBbheUpqsp2XeZpqm/C9hEMgI4E7PhO47JoJXycxETA3q8tmmeG+bUJDu7R7GJnVJ/fpd/tCYBbheUpqMpiXeZpqRfiUqumCwOq50vf/2uRAhLfJFxXXCN83kUDLob7NPsG3LvFFnFiG+ulx36t2hMAswvOU1GQfL/M01e1pqhFPyvJS+19Y8GVh/Tu5JjwStUhtRSOnrj19W4TXfdGEpLT64xUjMIvwPCU1+cHLPE21WuEpHdTUpS+9fT9j7YhQcTWWqbVoLCLBe3LXk2Df1ei7ILz1zsEq6+vH6/aCwCzCe5pqNUYqyImUQkrJiLq+B9WO647ELkmvV90+9b11qm9N+DjpsImF/Zmy9pWktz+v3BkCzYT3NNXWmMgXXpyUnTSSpyRnV1+96dMdvzPn79BRyWKET4kuaYMhCV9/EYj+d9/rq455xR4RaCa8p6neYZpqmBSIXSkY4iqaJ4pyMokTAt/2NxF+RN+C8Gr1F7GLdTrLrZDwhz0j0Ex4T1OdCMa2r2fqhVgkqdrqKiLb4z1St9aVCEYrfRPhWdrqnNo6TzRgLyc83ldX8bTz0HbaTnvpHhBoJjzY5mmq9zBC3oUjsCACswi/oB0nqMpaxfeVpvoq+z7BoT4gl53wBzQYboojsGsEnPC7Rtj1OwIHhIAT/oAGw01xBHaNgBN+1wi7fkfggBBwwh/QYLgpjsCuEXDC7xph1+8IHBACTvgDGgw3xRHYNQKzCO9pqnc9PK7fEVgWgWbCe5rqZQfCtTkC+0CgmfCepnofw+N9OALLItBM+ENMU40HOSivmolT+kkpO8zR3oYfirGzzkTdTM44ZGIdsBl7hrzQL3zvSTMl0lGlwzDiENBZ4KfuOJSlvflgTXmCL7cEW22/7KO9uaVhHxu/0h7AuxyPAitjLAoZwIT1BTbZ/dm+2bLZtjH9cRyWuG8m/CGmqSYA7cCKgwVplPkgtrbhfcSBzQMZ6MSZCqrYVyZIF0A8qCYcKQV9dTsmEp7bkOznugNl61EnAsPFeaCmiAM9qOjUtnbV4G81tbV92q43FXinmG7SJD9iLHB8hP2xLcfB9pHOJgyMLZmUrmP6U01mP84iPE9JTZbwsn2nqcagAkLroETjYvBYhMeyqW22l+QyzPthu8nkw4FUAUbCepCtANIy1FZf0d+qHXMIn1Yy5gPayZ61LfBs+UJypa2xhspNn3Hy4xMpacvXvj5BCvVW7NZ96mdor/2u91dOTnXZaH9ff9nDZe9mEZ6npCazeNl+01THwd1sL5B8YqIG49I29mJbrvBtbWqEj7N90T8BpILYCgoIBL6qUFN9LeX4xLMA4TsnBnxKhlm+kM2lrVADehOhERe5QtJOqTODlLFrX5+D7dVYVAnIDOjtD/P/ZR96ZWkyYrrBraE2zPWm21mE5ympqXdettc01QlAIAqCpmZ1CjgNqCif2IZ8phUex04NepahO0kebQ9OTOZug9rnK9meSzjJ+X2WwDvrOzwPPEWEsTYVvrBuS1vzJBynTtte1Glk7SXVfX0O2y3HAmzkX/es/xCktz+FW6+sRXjVnnxc8jqL8DwlNRnFy/aappoRXqwcYBgCGWdePQg5ENlqM7pN9BoDhUjaQnj1woxzj3C1rtl2w470NcPUZRGe26AmvmHixP4RW65H3etdi7Zfj03nM45ffPmpdZh9kv0TxyKO44iXrCaoYK2MoV7biPAcI7K7c3z5m1mE5ympyTRettc01YLwtL1Pawfbxuug4kHH77kcv8dhhZWgNlATg0zrpt2CWGkIXHXtD1B7xUQVFuG7IJarXidPE5qygT+WvuRaji2WWquZVZZVxK9lgHtn68AWeOJYIJ6dbgOHoS23sr8PD3BrTH/c/SXuZxH+oNJUK8LnVR0CP7/40YMgAhEHDHYCE9roUVCDrqv1NlHbg/JDOpJSYXvZkXiRKKp7CY9AyhefI+0xfanYirJ80mT3ehUXtitb+vrUWAs98KB0SQIaOAwRXuHaa1tBeLu/wuaZBc2EP7w01XJVp5Xy/Jz/F0jliiBJk1bFSW3KESgCh4noOjMoMBDzyx/WXNxK20UVPpi6jUDTNhF2mXgRF76ylr2V2HIZaWvUl/VnSbS5d2srV96aj6Sx9I1q9ApbPpc49Pko7YJepttWxyVbPe+umfCHmKZaBhXNmPKNtx6ERdoUYxAHXxMEg09tjbU9FGS6bdFFIq5Fmk4WJw6VJhq3uXnHA7ImKQq55JMmY8vf4dXK2tkLN9xmuO+22FEK8WIYlvgJbeBdOFdfA0DCGosxOJj9JZv1mJmyzLy+/pjYorfNhD/ENNUAoCQADLZcKfUgLNPGGpO0KrKtqg4IaIX2cBkjOC3tUFbabkhSMHZ9SLKTntK2ZL8guOETq9fYcmu4rXBPqbS5TLxPfSDRE1k72+HdiTGeoj6+X5HzhGG3FMCu0a6iXOJgjpeyiXyyZfME3Ncf6Vj62kx4MMTTVC89HK7PEdgtArMIv1vTXHu3HR1cwRwrR2AcAk74cTi5lCNwFAg44Y9iGN0JR2AcAk74cTi5lCNwFAg44Y9iGN0JR2AcAk74cTi5lCNwFAg44Y9iGN0JR2AcAv8HJ/ZQs6FosRoAAAAASUVORK5CYII=;" vertex="1" parent="1">
          <mxGeometry x="460" y="321" width="252" height="116" as="geometry" />
        </mxCell>
        <mxCell id="n6DobrlzXXJB-d5-m3xx-43" value="" style="shape=image;verticalLabelPosition=bottom;labelBackgroundColor=#ffffff;verticalAlign=top;aspect=fixed;imageAspect=0;image=data:image/png,iVBORw0KGgoAAAANSUhEUgAAAN4AAABHCAYAAABoDvk8AAAOH0lEQVR4Ae1d3a8lRRG/f9d50Bd9UF40BtSYrKJwwUSDD/hgMNFENBhBT0hkdYniLrv4QQhGshcBA2Jg2WTdvaKJH1kiC+KLiUQTFqMB2lR110xVdfVMz5k+57D31Caz3dNdVV396/p1z8yd6bMX/J8j4AhsHIG9jbfoDToCjkBw4nkQOAJbQMCJtwXQvUlHwInnMeAIbAEBJ94WQPcmHYEmxPvP/94KD77wSvjsmcPw4fvOF4+bTl0KDzz3SgB5/+cI7DICs4kHJLr94T+EWx48DHee/XP49lOXw/JXL2XHd556KXz94C/hltOH4XMP/c7Jt8tR532f/1QTVrqbTl4M3zj7p+oDVr4fPnfF4XcEdhaB2SveracPw+0/PQx3PPKiCeLb77wTXnv9zfDoxb+hDMh98WeH4TMnL5ny4fIyLPb2wl7hWCwvC73Ly4WS3Q8HQiKEGpmDfdXmYhlkS73RbdjrW5e5Vr7E/i+Cgpc1dhD2YUz2e3RX1kk2Msz5mAuZaX7lmMDY9jaG/EZd0baKC/KR4cBAqs7OJh7c09125kL4wpkL4UsP92SCczjuefyP4bXXr6JDPzn/MpbddvoC3gdWexlCQLAEGS6H5QJAUUQ72A89JjUyKaCE7dSeth22Ya+EUltfiAR6YqPWISAXi4VBvL0wWacfIDIfx7dUvjetDU6ergGWob7uqTEHkZIu6hj+MbOTsk2It/+D5wMd1DqdQ3rXY7/H4lf/+UYnB4St/newL2Ys0EOADOC4zRqZnNC9BQ32Nuz13shca1+gr0isbLKBdiPJLeKtosNXTeqVxpqXT20DsRkgCfZ1ucQVXE8aJd2Sf+Tn1LQJ8T7x3WcCHeQAnUN67PivqbiTqydeXJEkQLFsAFtYIxHYWTJ42UuXKNuw18GmMq19iSv8YnmAVxEZZjDxLZbhAC7rWWUM4Ok63AZ1rBTYq7RRIg9vC+MJJ3R5xVTSLflHNqemTYj3obufCHSQA3ROqS6vJR52WK9sBmBkv0ubyLAA34a9rjMq09qXdCkPwYiBp/COwZ/qMuJN15lOvGltlMhDKFJ/4FwTqqSr5cjWqmkT4r3/zscCHeQInUP60eWTWPyvq//t5KqIhwFGKw5ZRrTyeztWjdnWwbkNe7pPdN7aF0a8eKXAMMdVP64KOij7AIYJql5nFeJN8Qv9pIcglLLJpPcb71nCgvmu+9hDLh8sUfmqaRPiLb78SKCDHKFzSO/4cbyfO3vpSic3Try42shLzGS9SeDVEHj3VjxAmAcmD0Se13JTdFYjXr1f2k+KSUq5r1CG8omYJV3Qsfwmm1PTJsR771d/Ht7zlUfxIAfe97Vf4Pmt9z8b/vHvN/H4yD2/7OTGiIcdZbMU2cVU3HuJmv6khQy3wfN9KzI3JsPreV5aGT+r0R2TUfUiGLEOVjl4qNKvZDooV9WxArgU2Ku0of3UgAqbWNlP8iXdkn/adu35bOLdfOpiuO5bT4YP3HUQ3nr7HdEunP/99avh7OGr4dh9z4QPfvNxPK67+4lw4wO/FbLiBFe0fsBFHZ6kR+nsfmM1mfwan9uRYNe02d4e96fPt/ZFrib0FHN/Pz5Uob9n6qCUARx9qtFZmXjp6epYG9rPHreYk36n2nQVtVQPkEhXxgKVrp7OJt7J56+EG46fC9ff+zQeN9z7dBg7rj9+Lpz4zcsFr/vZpyCQiqNc9rcY8Xe8CTKKxAh09mh9G/ZKKLT1JQtGDET59zMd0KvqrE48uj0Y9kv7qRHM/KaIopcoVCxANcaDUa5t157PJh68q/n5h14MH//++XDsxAvhU/efCzcaB5R/8v5z4WMnzoebTx0W39XEDtINsZHKe74083O57PJ0RZkiyNuwVxrOdr7kwQjEHn7UvqrOLOLhn4mG/ULi8ZhIeRrS3O+EL15i2/dyGJdkoDQcE8pnEw/aAvKdOgfvbF4qfpkA93Sf/tHF8L1n/1ok3QS/XdQRuKYRaEK8axqBd63z6VJyYOZ+17rujo0i4MQbhcgFHIH2CDjx2mPqFh2BUQSceKMQuYAj0B4BJ157TN2iIzCKgBNvFCIXcATaI+DEa4+pW3QERhFw4o1C5AKOQHsEmhAP/oDu2/u1Hxy3eHQRmE08397v6AaH92x9CMwmnm/vt77BcctHF4HZxNul7f3wRVnxClf+6VImY7xYm7/EK1/6tcIt15Fv6Eud9PJ09sI4SMU6wy14BR/3VqHPgMhm3nbub9Zvs+30lj/HMDmS6Rsy6H1hO8cafVNGAYEyqoxwaJnOJh68/Lwr2/vBoPCvI2JAEvlSsKtBO1jy/TnpawIVuOJTJnt4sS1uO71Jz4s6TahbLMSWBl3dJOLV+Gt/nhSDnPezBp/opR38Nb4M6Vuf9kTf+Zjabffotco1IR7fyo8c42VHZXs/TTxaPXDgkAhEQkJBpkiewkogJfOzjHgD34iRn3YQxQA2CatWvBp/sY1Cn0T7FfhQr4VeKqzxZUgf6mrsWjJkt2XahHh8Kz9yjpcdje394sDx2VEQb3Q7wTi7mgFPoA2kJeJJf8AAtJMmAAx2vupAfS3xavwdkRFkG5Flfc+Dv14XESjsj5LbzTewtWSYa82yTYhHW/hBSv94mVU+tucK2UEg9IyaPtPvNxMnaZY2kZEDDr7IQJdBjOQo7Xpc4w9zX2cz4pXsQXmHl/Qv2rTKUmtct2SfOzYqI/EbxIfZzYJ/tB2mXFjZQCKzKyaGaCOTkaabnTUhHt/KjzzjZUdie780cJx4OEjqK23+2w9cFh9caFkCqyKloOW/KWGtnuATbzcjbO2KVxPsozKSeNhNDPb4ewTcTw5BFvyj7XBtg2CpOo4X+y2EboLq9bO2+6qmuSbE41v5kXe87Ehs70czJn/aZgwc9T8SjW0jMDF4OjspUyKQ2EbBmMHjRMDvPbe34ok+IR4MH1aZBf9E7DL9ZFuWG5MCjbE1ozH/WmSbEG8ntvczVrzRAeBE4PlRxVwgJ15hM1Y+MbB8v7pE4vXnrC0IcJpMavwdk1mxXhIk7yfz2Mxm+kkqKzcIncmYLcwvnE283dnez3q4MjYAfFaNAS9WqDF1Vl8mHj08KRMKdYlQGMfyNxCoGRl0df5KHbIU06G6JGH+vkWuV+cLtZ7rl/zJMSvpku1W6Wzi7dL2fjAo5koBowGzu7pEwYAX93WRiN2qQqO4yt/x0r1aR+Sh1QXr9vqfL9Pn4AfO/vySFAvjb+Ix0qLLwt/UJ9V3DGDe9yp8IiB28NdjZ+sX7v1Uv0u60bN2/88m3i5t7weDUiRe+nMCf/iR/XYfjluavdllYEZEY3wjidmDAdBnwY4BownS2TFWjES+3l9NOlKu8deQYb5FS4k4vN+cmNTc4H2W0Y7R5xJ57PJkM9lBGeHjXn/5zXycm51NPHDAt/ebOwyuv2sINCHeroG2nv5aK0Jc4bLFYz0OuNUNIuDE2yDY3pQjQAg48QgJTx2BDSLgxNsg2N6UI0AIOPEICU8dgQ0i4MTbINjelCNACDjxCAlPHYENIuDE2yDY3pQjQAg0IZ5v70dweuoI1CEwm3i+vV8d0C7lCHAEZhPPt/fjcHreEahDYDbxfHs/CXT2kq3xvlf+wjN92iNt8bPMLu2rkoTyevkS9aAt40VjlFffq+V+wytt+cvVuVzsn+kjvZCccEIZhlnUydsA/7CdTFa+SM6qU5dkfc0L6hy7VvnZxPPt/Sgo0lvuaqRbbe8HAci/jIjBTW1bn7zEdz+5TtwIKX/bPga3QX6LeKp/MhDp6wFlS3xGFDU0wciOLo++5T6DvEU82V+yCqn9WVGx71x1DfkmxONb+ZGPvMy394uoYKCUVhcCrpBCgMigikFOZTpgwYxuD2UK7Vv6ep8YHejaVd2erufnZnvGJ0Egt1gu8btA6ivZ0f5EWb0db5TG9qb0nRpZU9qEeHwrP/KTl/n2foBKnHEHFwwCz0jzoKokXtfgSPv4fV6/gqILk1a8EfuqT0iEzre+Upd3/Va+gEY98UZ8s/reu7SWXBPi8a38yEte5tv74VQe7A9jCbHhtAvATiwSj2JXB2y2yZERuJ0pzBjBqXR0oAt9JSvqjJPM3ySjy3m/dZ32h8uKJkd9M/ouDLQ/aUI8vpUfucjLfHu/9sTDIGRfcMdz9uBAX1atEnxKBwOdHoZQSu0oWYqDUqpJRHK6HM67S0y1MlnE67+oByzSveaob9co8fhWfgQgL/Pt/doQTwQVBXwCXAasEUirBJ/S0YFOY42pkhV1xon0txfQ5YJ4dHmZ+q790bKd1VHfDLw65fVkmqx4vr1fYXD4DM3zBfGh4mJQJSUdsPrBSHbpqRuz/IOAZQTXgS5MWPpCQJ5k/qZqXZ73O5IEVkHtTy6bjI75NlYvXW9yNpt4vr3f0DjwmTQ9aqebsiE1o64YVElWByz9RkJ3mYaL7sjf9pRvGNi1xNO7nhl94EW5v7FWl5v9TivYEn6yi/lsyhbx6b3RbfY168vNJp5v75cGB2ZNFgRQioFL9xkoFonIV5FYvN9vvZfM6WQoqEDWDB4MUP6kMrWv/ERd4SdYlA9vsEQFuvaRntzW9M/01+hHqd/RZzmRlGSjn1P6nvesdcls4vn2fjQkaWDpoQOm6g/JKJpWPi7HVhWyptPhoCoQj1YhYd9oXxCx7wdfLcGfOJGwBzipD0Kd2hzpHxJHKmKXdXmx33h5OIV42IOwXCj/DR809us4n008cMq391vH0LjNo4xAE+IdZYA217d+pRFPL/fYDtCbc8ZbWjMCTrw1A+zmHQELASeehYqXOQJrRsCJt2aA3bwjYCHwf3/FPyub6i4VAAAAAElFTkSuQmCC;" vertex="1" parent="1">
          <mxGeometry x="299" y="130" width="222" height="71" as="geometry" />
        </mxCell>
        <mxCell id="n6DobrlzXXJB-d5-m3xx-44" value="" style="shape=image;verticalLabelPosition=bottom;labelBackgroundColor=#ffffff;verticalAlign=top;aspect=fixed;imageAspect=0;image=data:image/png,iVBORw0KGgoAAAANSUhEUgAAAOgAAAAeCAYAAAAmYlJ8AAAHR0lEQVR4Ae1b3WsdRRTfvyhPecqDvuiD9kWrtYI2UUsvgg8Vqg9SQYmp9CPVEDDFhpoa29QPSoMlaZqUVh9ML8R7r1XwgxSb1AhBMCiYgtDmyMzs2T0zc2Z3bnYX7o1zYdid2XPOnPmd85szu00jCL+AQECgYxGIOtaz4FhAICAAgaAhCQICHYxAaQRtrAOEFjAIOVAu2wNBw8YSNtaSc6BMigaClhycUEHCKaIrCHpz7T4MX1uF/ZMteHKs7mwDZ5twfH4VhHxI7pDcOyEHOp6ggmyvXPgBapMtGJr5Gd5bWIaRa7et9v7CbTgy+wvUzrXgwCffBZKGar4jNumOJ6isnGcb8O7MT95t/2QTjs2v7IgA7YQqENaw/dNMxxP0pY9b8NpnLTh88Rbr64OtLVjbuAeXGr9JGSH3+uct6J9o8gStj0BPFEHkaD2Dy5re9GCfIVuDUUd18pEd3WfM3TsC04Y9Sybqg0N1PciWzL5ZzW9BCh9/XOSxdSMwsUl1l+FQbwQRs5bGunq2e0r3X+pO1Vgde24bc2v97NwAllyMkzVO84Fg6fLFR5+VIbYFBlLGGEtxZVN+24OVfCQS75wHzy/Bq+eX4I0vmolzoi/aySs/wtrGphz/tH5Hjh08tyTfU+lC8+4lUFqQ+aTDgOkJF8tGRiJN1SCVm4XdIgm0OTCBdD3hCyWDmhNJGs9lBHV0kBK9Hd8Z4iC56Rzxxpauh+iJZ7190MNsJO0RtEwcfXBSa+BJ4uNLlj5HPpUDNLb83Cm2ScKXcFMZQWtnvgFs6Cf2xfXo5e/l8N0//0nkBLHzSJk8Fzu5kVw2YVPQFGFSUsm+QbzEdlwds+yZQRJ9GkRMcjkmiYJkTX2i82XNZfpO9ei9lKMEzdjt0V9zHcqeSnSW2EYFLRVHD5xwvZzfPr5k6YtnPnY5GbQrrmX+KiPocx/cAGzoMPbFtf/UVzicyPkT1N7VGutqjE0qSTj6nN7zhMm1ZySTCJqToG35xvnj4298PGYIqvsl7At78YYh15FuXCrRfAnq41eOjIZjjix5rbBJ4q/rIqJr3Nz47Ln1mCWJXcJNZQR9YvgqYEM/sY9Xc9yXoBIgs/qxiaYDl5BIVl8zKXXZRq6MnhCJ7SSJ9CSXQY5MEsdztuN7Yt/wlzviutagVUHdz7YI6rJPfcyV0XHMxInYtUiSO4+Ol6Uf27bGtQ1E2bBkiF8CvzJ/lRH00aHLgA0dxr647h2Zl8N/bf6byHkRVAaCOS56BCgB1kO2KEHlXOb7rQy2+uCkVTUPfxLfjWRQhFKJg8lNP6ZxJwphi85vVgg8nnO6EhfcHD38bhdHuR4XTmTtFh4+vmTpx89U3MhHQVyrhy7GAvO9jGtlBO178yJgQ0exL66HL9Tl8ExzJZHLJ6jabWlyISj5iaDeL6SuTzBzZfSd3yewuq8RRHgczZ2L+E4SJbEXj7mIlswj5JiKYI9xVTWuQMJXTFoPv/PjouOorUnaJziRtVdKUIyL49XEmpv4Jfwv81cZQR9+exoeeuuSbOjwI+98Kfsvj38Nf/x9T7anTs4lcnkElcBgchig5L4zUrC5JDXt5ckYz4Vv7MZh2sW+pp+RpFI+7zmpoElyxYTS5uH+GSetFqn/iqBpP7YlfKEENWxr5GLXSewUfG6RxMcXnNPxMUj4b9llNiFLhtjtCoIOTDRg14l5eOzoLNx/sIX8lFfR/31jE2Zad6F/7AY8fuyKbLuGr8LzZ751f8WVQDFHWwKOBM5BYHX8w/dOlYBaZSF2MNGyAmE+E302oRm7yr5OOn/fmSSP57ArKFZMfd2cn1KXYMfashK4fBwR+/Sq44TjJv54LM+LqVtf4eqySzGzZfSYaAlfsFNJBT0+vwJ7xhZhz+h12Z4ZvQ557elTi3Bk7o6DoCpIFCQEWr8queQIRhMXv1omhOFlRYVI371iGaMqyQAZ75dizOmf2N0NG/qGIQLM+6PksjcmxMAmlUGgrCojn0Xp2s2+wI3dJHm/t4WjF04uIrkx1H3J0mcqKLPurieo+FvcA5O34NkP69B/+ia8ML4ILzJNjA+ML8Le03UYmGg5/xZXESI9itGPIOLeJAYvzyV5nMD0L1JIFVGJz8gYZBNymQRF8tF5DIIjyfx9V4mGeuKqyGzgRHyVtq31oR2DzCIxY5KmeHMYCn0GI2seRob4ptYRk90XJ0vf1xcHEa0TgoFNvCY2RmS9BYumpl5JBRVgC5KeWFiFgYmm83+yiHfO/o8aMDT3q5OcNAGL3NPkTSskBqCzr93se5GYdauuxrCCncoI2q3gdrbfXIVRFbPbNp3OxrnYhl2Qk5p6IGjyTlosKDs54cLa2ssNjWEFO4GggaCOD3PtJWUgcYpXQU5q6oGggaCBoCXngMawgp1A0JKDEypJWkn+r1gU5KSmXhpBNauhExAICJSCQCBoKTAGIwGBahAIBK0G12A1IFAKAoGgpcAYjAQEqkHgP8QRf6a5UQ2NAAAAAElFTkSuQmCC;" vertex="1" parent="1">
          <mxGeometry x="294" y="50" width="232" height="30" as="geometry" />
        </mxCell>
      </root>
    </mxGraphModel>
  </diagram>
</mxfile>
